<svg width="32" height="32" viewBox="0 0 32 32" fill="none" xmlns="http://www.w3.org/2000/svg">
<path d="M23.26 11.4948C22.5153 11.2256 21.7289 11.0899 20.937 11.0938C18.38 11.0938 16.573 12.3858 16.562 14.2348C16.541 15.5938 17.843 16.3598 18.827 16.8178C19.838 17.2868 20.176 17.5788 20.171 17.9948C20.166 18.6358 19.363 18.9218 18.624 18.9218C17.597 18.9218 17.04 18.7818 16.181 18.4218L15.862 18.2708L15.498 20.4068C16.123 20.6618 17.243 20.8858 18.399 20.9068C21.123 20.9068 22.899 19.6258 22.919 17.6508C22.94 16.5678 22.243 15.7458 20.758 15.0678C19.862 14.6308 19.301 14.3328 19.301 13.8848C19.301 13.4888 19.78 13.0728 20.78 13.0728C21.4436 13.0562 22.1034 13.1785 22.717 13.4318L22.962 13.5408L23.321 11.4838L23.26 11.4948ZM29.907 11.2708H27.907C27.282 11.2708 26.818 11.4378 26.542 12.0578L22.698 20.7708H25.417L25.965 19.3438L29.282 19.3488C29.365 19.6818 29.599 20.7698 29.599 20.7698H32L29.907 11.2708ZM12.88 11.1928H15.469L13.849 20.6968H11.26L12.88 11.1878V11.1928ZM6.297 16.4268L6.562 17.7498L9.098 11.2708H11.843L7.759 20.7548H5.026L2.786 12.7238C2.76884 12.6571 2.73826 12.5946 2.69614 12.5401C2.65402 12.4856 2.60123 12.4403 2.541 12.4068C1.73638 11.9883 0.882829 11.6716 0 11.4638L0.031 11.2648H4.208C4.771 11.2858 5.229 11.4638 5.385 12.0678L6.297 16.4318V16.4268ZM26.703 17.4008L27.74 14.7398C27.724 14.7648 27.953 14.1928 28.083 13.8328L28.26 14.6498L28.86 17.3948H26.703V17.4008Z" fill="white"/>
</svg>
