<svg width="24" height="24" viewBox="0 0 24 24" fill="none" xmlns="http://www.w3.org/2000/svg">
<path d="M18.4 7.2H16.656C16.744 6.952 16.8 6.68 16.8 6.4C16.8 5.072 15.728 4 14.4 4C13.56 4 12.832 4.432 12.4 5.08L12 5.616L11.6 5.072C11.168 4.432 10.44 4 9.6 4C8.272 4 7.2 5.072 7.2 6.4C7.2 6.68 7.256 6.952 7.344 7.2H5.6C4.712 7.2 4.008 7.912 4.008 8.8L4 17.6C4 18.488 4.712 19.2 5.6 19.2H18.4C19.288 19.2 20 18.488 20 17.6V8.8C20 7.912 19.288 7.2 18.4 7.2ZM14.4 5.6C14.84 5.6 15.2 5.96 15.2 6.4C15.2 6.84 14.84 7.2 14.4 7.2C13.96 7.2 13.6 6.84 13.6 6.4C13.6 5.96 13.96 5.6 14.4 5.6ZM9.6 5.6C10.04 5.6 10.4 5.96 10.4 6.4C10.4 6.84 10.04 7.2 9.6 7.2C9.16 7.2 8.8 6.84 8.8 6.4C8.8 5.96 9.16 5.6 9.6 5.6ZM18.4 17.6H5.6V16H18.4V17.6ZM18.4 13.6H5.6V8.8H9.664L8 11.064L9.296 12L11.2 9.408L12 8.32L12.8 9.408L14.704 12L16 11.064L14.336 8.8H18.4V13.6Z" fill="#FF6E40"/>
</svg>
