<svg width="32" height="32" viewBox="0 0 32 32" fill="none" xmlns="http://www.w3.org/2000/svg">
<path fill-rule="evenodd" clip-rule="evenodd" d="M0 3.05029H32V28.9501H0V3.05029ZM2.34454 5.04343H5.28758H8.63143V7.61858H5.28758V14.9542H8.63143V17.5239H5.28758V24.3873H8.63143V26.957H5.28758H2.34454V24.3873V17.5239V14.9542V7.61858V5.04343V5.04343ZM14.0673 14.9542H17.2464V7.61858H14.0673V14.9542ZM17.2464 17.5239H14.0673V26.957H11.1187V17.5239V14.9542V7.61858V5.04343H14.0673H17.2464H18.8167H20.1949V26.957H17.2464V17.5239ZM26.3171 24.3873H29.6609V26.957H26.3171H23.3686V24.3873V7.61858V5.04343H26.3171H29.6609V7.61858H26.3171V24.3873V24.3873Z" fill="#757575"/>
</svg>
