<svg width="32" height="32" viewBox="0 0 32 32" fill="none" xmlns="http://www.w3.org/2000/svg">
<path fill-rule="evenodd" clip-rule="evenodd" d="M1.27902 6H30.721C31.4255 6 32 6.59106 32 7.31594V25.3292C32 26.0541 31.4255 26.6452 30.721 26.6452H1.27902C0.574477 26.6452 0 26.0541 0 25.3292V7.31594C0 6.59106 0.574477 6 1.27902 6ZM22.1472 12.3985C21.5158 12.1643 20.8492 12.0444 20.1799 12.0472C18.0147 12.0472 16.4837 13.1735 16.4756 14.785C16.4566 15.9671 17.5595 16.6362 18.3941 17.0349C19.2504 17.442 19.5349 17.6985 19.5322 18.0609C19.5268 18.6185 18.8466 18.8666 18.2207 18.8666C17.3508 18.8666 16.8793 18.744 16.1531 18.4317L15.8821 18.3007L15.5759 20.1603C16.1043 20.3833 17.0528 20.5785 18.031 20.5952C20.337 20.5952 21.841 19.48 21.8572 17.7598C21.8762 16.8175 21.2855 16.1009 20.0281 15.5099C19.2694 15.1279 18.7952 14.8686 18.7952 14.4783C18.7952 14.1354 19.1989 13.773 20.0471 13.773C20.608 13.759 21.1689 13.865 21.6865 14.0852L21.8952 14.18L22.1987 12.3873L22.1472 12.3985ZM27.7754 12.2033H26.0818C25.5507 12.2033 25.1605 12.3483 24.9247 12.8892L21.6703 20.4781H23.9736L24.437 19.2346L27.2443 19.2402C27.3148 19.5302 27.5126 20.4781 27.5126 20.4781H29.5476L27.7754 12.2033ZM13.3593 12.1336H15.5488L14.1777 20.414H11.9854L13.3593 12.1308V12.1336ZM7.78525 16.6948L8.01016 17.8462L10.1563 12.2033H12.4813L9.02363 20.4642H6.70946L4.8126 13.4691C4.79634 13.4105 4.77195 13.3548 4.73673 13.3074C4.7015 13.26 4.65543 13.2209 4.60395 13.193C3.92379 12.8278 3.20027 12.5518 2.45237 12.3706L2.47946 12.1977H6.01575C6.49268 12.2145 6.88018 12.3706 7.01296 12.8975L7.78525 16.6976V16.6948ZM25.0629 17.5423L25.9409 15.2255C25.9273 15.245 26.1197 14.7488 26.2308 14.4337L26.3799 15.1474L26.8866 17.5368H25.0629V17.5423Z" fill="white"/>
</svg>
