<svg width="32" height="32" viewBox="0 0 32 32" fill="none" xmlns="http://www.w3.org/2000/svg">
<path fill-rule="evenodd" clip-rule="evenodd" d="M23.0859 13.1988C26.0615 13.1988 29.037 13.1988 32 13.1988V15.9789H29.7179V19.7148H25.368V15.9789H23.0859V13.1988V13.1988ZM5.53507 23.6492C4.17336 23.6492 3.06383 22.557 3.06383 21.2289V14.0676C3.06383 11.6101 5.09377 9.61192 7.59023 9.61192C10.0867 9.61192 12.104 11.6101 12.104 14.0676C12.104 16.525 10.0867 18.5109 7.59023 18.5109C7.18676 18.5109 6.7959 18.4612 6.43026 18.3619V15.7183C6.75808 15.9293 7.14894 16.0658 7.56501 16.0658C8.68716 16.0658 9.59496 15.1722 9.59496 14.0676C9.59496 12.963 8.68716 12.0694 7.56501 12.0694C6.44287 12.0694 5.53507 12.963 5.53507 14.0676V23.6492V23.6492ZM27.398 7.41511C24.788 6.01263 20.2994 4.08887 15.2561 4.08887C7.32545 4.08887 0 7.91156 0 16.5623C0 25.2006 6.85894 28.9116 14.84 28.9116C20.5012 28.9116 25.1537 26.7396 27.398 25.4736V20.5215C25.7715 21.4772 22.7833 22.9293 19.6564 22.9293C10.7801 22.9293 11.1206 10.2697 19.379 10.2449C22.4807 10.2325 25.5193 11.4488 27.398 12.3921V7.41511Z" fill="#757575"/>
</svg>
