<svg width="32" height="32" viewBox="0 0 32 32" fill="none" xmlns="http://www.w3.org/2000/svg">
<path d="M23.9998 10.6667H21.3332V9.33341C21.3332 8.62617 21.0522 7.94789 20.5521 7.4478C20.052 6.9477 19.3737 6.66675 18.6665 6.66675H5.33317C4.62593 6.66675 3.94765 6.9477 3.44755 7.4478C2.94746 7.94789 2.6665 8.62617 2.6665 9.33341V22.6667H5.33317C5.33317 23.192 5.43663 23.7122 5.63765 24.1975C5.83867 24.6828 6.13331 25.1237 6.50474 25.4952C6.87618 25.8666 7.31713 26.1612 7.80244 26.3623C8.28774 26.5633 8.80788 26.6667 9.33317 26.6667C9.85846 26.6667 10.3786 26.5633 10.8639 26.3623C11.3492 26.1612 11.7902 25.8666 12.1616 25.4952C12.533 25.1237 12.8277 24.6828 13.0287 24.1975C13.2297 23.7122 13.3332 23.192 13.3332 22.6667H18.6665C18.6665 23.7276 19.0879 24.745 19.8381 25.4952C20.5882 26.2453 21.6056 26.6667 22.6665 26.6667C23.7274 26.6667 24.7448 26.2453 25.4949 25.4952C26.2451 24.745 26.6665 23.7276 26.6665 22.6667H29.3332V16.0001L23.9998 10.6667ZM9.33317 24.6667C9.07044 24.6667 8.8103 24.6148 8.5676 24.5142C8.3249 24.4136 8.1044 24.2661 7.91868 24.0803C7.73296 23.8945 7.58567 23.6739 7.48521 23.4311C7.38475 23.1883 7.33308 22.9281 7.33317 22.6654C7.33326 22.4027 7.38509 22.1425 7.48572 21.8998C7.58634 21.6571 7.73378 21.4366 7.91962 21.2509C8.10546 21.0652 8.32607 20.9179 8.56883 20.8175C8.8116 20.717 9.07177 20.6653 9.3345 20.6654C9.86511 20.6656 10.3739 20.8765 10.749 21.2519C11.1241 21.6272 11.3347 22.1361 11.3345 22.6667C11.3343 23.1974 11.1234 23.7062 10.7481 24.0812C10.3727 24.4563 9.86378 24.6669 9.33317 24.6667V24.6667ZM5.33317 18.6667V9.33341H18.6665V18.6667H5.33317ZM22.6665 24.6667C22.4038 24.6667 22.1436 24.6148 21.9009 24.5142C21.6582 24.4136 21.4377 24.2661 21.252 24.0803C21.0663 23.8945 20.919 23.6739 20.8185 23.4311C20.7181 23.1883 20.6664 22.9281 20.6665 22.6654C20.6666 22.4027 20.7184 22.1425 20.8191 21.8998C20.9197 21.6571 21.0671 21.4366 21.253 21.2509C21.4388 21.0652 21.6594 20.9179 21.9022 20.8175C22.1449 20.717 22.4051 20.6653 22.6678 20.6654C23.1984 20.6656 23.7073 20.8765 24.0823 21.2519C24.4574 21.6272 24.668 22.1361 24.6678 22.6667C24.6677 23.1974 24.4567 23.7062 24.0814 24.0812C23.7061 24.4563 23.1971 24.6669 22.6665 24.6667V24.6667Z" fill="white"/>
</svg>
