<svg width="32" height="32" viewBox="0 0 32 32" fill="none" xmlns="http://www.w3.org/2000/svg">
<path fill-rule="evenodd" clip-rule="evenodd" d="M28.4079 11H22.3345C22.661 13.0245 24.6202 14.9184 26.7753 14.9184H31.6079C31.6732 14.7224 31.6732 14.4612 31.6732 14.2653C31.6732 12.4367 30.2365 11 28.4079 11Z" fill="white"/>
<path fill-rule="evenodd" clip-rule="evenodd" d="M22.8569 15.2449V20.1428H25.7957V17.5306H28.408C29.8447 17.5306 31.0855 16.551 31.4773 15.2449H22.8569Z" fill="white"/>
<path fill-rule="evenodd" clip-rule="evenodd" d="M12.4082 11V20.1429H15.0204C15.0204 20.1429 15.6735 20.1429 16 19.4898C17.7633 15.9633 18.2858 14.9184 18.2858 14.9184H18.6123V20.1429H21.5511V11H18.9388C18.9388 11 18.2858 11.0653 17.9592 11.6531C16.4572 14.6571 15.6735 16.2245 15.6735 16.2245H15.347V11H12.4082Z" fill="white"/>
<path fill-rule="evenodd" clip-rule="evenodd" d="M0 20.1429V11H2.93878C2.93878 11 3.78776 11 4.2449 12.3061C5.42041 15.7673 5.55102 16.2245 5.55102 16.2245C5.55102 16.2245 5.81225 15.3755 6.85714 12.3061C7.31429 11 8.16327 11 8.16327 11H11.102V20.1429H8.16327V15.2449H7.83674L6.20408 20.1429H4.89796L3.26531 15.2449H2.93878V20.1429H0Z" fill="white"/>
</svg>
