<svg width="18" height="7" viewBox="0 0 18 7" fill="none" xmlns="http://www.w3.org/2000/svg">
<path d="M5.38429 6.6998L5.34108 0.694092H4.07417L4.09937 4.19742L1.54035 0.694092H0.273438L0.316646 6.6998H1.58356L1.55835 3.19647L4.16805 6.6998H5.38429ZM10.4178 1.95529L10.4087 0.694092L6.35461 0.694092L6.39782 6.6998H10.4519L10.4429 5.44861H7.90911L7.90111 4.33756H10.4349L10.4259 3.07636L7.89204 3.07636L7.88397 1.95529H10.4178ZM17.5394 5.69885L17.5034 0.694092H16.2365L16.2689 5.19837H15.1338L15.1086 1.69504H13.8416L13.8669 5.19837H12.7216L12.6892 0.694092H11.4222L11.4583 5.69885C11.4602 5.96432 11.5688 6.21891 11.7602 6.40663C11.9516 6.59434 12.2102 6.6998 12.479 6.6998L16.5331 6.6998C16.8019 6.6998 17.0589 6.59434 17.2477 6.40663C17.4364 6.21891 17.5413 5.96432 17.5394 5.69885Z" fill="#FF6E40"/>
</svg>
