<svg width="16" height="17" viewBox="0 0 16 17" fill="none" xmlns="http://www.w3.org/2000/svg">
<path d="M4.8 13.1068C3.92 13.1068 3.208 13.8268 3.208 14.7068C3.208 15.5868 3.92 16.3068 4.8 16.3068C5.68 16.3068 6.4 15.5868 6.4 14.7068C6.4 13.8268 5.68 13.1068 4.8 13.1068ZM0 0.306763V1.90676H1.6L4.48 7.97876L3.4 9.93876C3.272 10.1628 3.2 10.4268 3.2 10.7068C3.2 11.5868 3.92 12.3068 4.8 12.3068H14.4V10.7068H5.136C5.024 10.7068 4.936 10.6188 4.936 10.5068L4.96 10.4108L5.68 9.10676H11.64C12.24 9.10676 12.768 8.77876 13.04 8.28276L15.904 3.09076C15.968 2.97876 16 2.84276 16 2.70676C16 2.26676 15.64 1.90676 15.2 1.90676H3.368L2.616 0.306763H0ZM12.8 13.1068C11.92 13.1068 11.208 13.8268 11.208 14.7068C11.208 15.5868 11.92 16.3068 12.8 16.3068C13.68 16.3068 14.4 15.5868 14.4 14.7068C14.4 13.8268 13.68 13.1068 12.8 13.1068Z" fill="white"/>
</svg>
