<svg width="32" height="32" viewBox="0 0 32 32" fill="none" xmlns="http://www.w3.org/2000/svg">
<path d="M29.9744 9.12932C29.6458 7.89755 28.6776 6.92745 27.4484 6.59823C25.2203 6 16.2857 6 16.2857 6C16.2857 6 7.35122 6 5.12304 6.59823C3.89378 6.9275 2.92562 7.89755 2.59703 9.12932C2 11.362 2 16.0202 2 16.0202C2 16.0202 2 20.6784 2.59703 22.9111C2.92562 24.1429 3.89378 25.0726 5.12304 25.4018C7.35122 26 16.2857 26 16.2857 26C16.2857 26 25.2202 26 27.4484 25.4018C28.6776 25.0726 29.6458 24.1429 29.9744 22.9111C30.5714 20.6784 30.5714 16.0202 30.5714 16.0202C30.5714 16.0202 30.5714 11.362 29.9744 9.12932ZM13.3636 20.2495V11.7909L20.8311 16.0203L13.3636 20.2495Z" fill="white"/>
</svg>
