<svg width="16" height="16" viewBox="0 0 16 16" fill="none" xmlns="http://www.w3.org/2000/svg">
<path d="M7.64606 6.09524H9.17527V3.80952H11.4691V2.28571H9.17527V0H7.64606V2.28571H5.35224V3.80952H7.64606V6.09524ZM4.58764 12.9524C3.74657 12.9524 3.06607 13.6381 3.06607 14.4762C3.06607 15.3143 3.74657 16 4.58764 16C5.4287 16 6.11685 15.3143 6.11685 14.4762C6.11685 13.6381 5.4287 12.9524 4.58764 12.9524ZM12.2337 12.9524C11.3926 12.9524 10.7121 13.6381 10.7121 14.4762C10.7121 15.3143 11.3926 16 12.2337 16C13.0748 16 13.7629 15.3143 13.7629 14.4762C13.7629 13.6381 13.0748 12.9524 12.2337 12.9524ZM4.71762 10.4762L4.74056 10.3848L5.4287 9.14286H11.125C11.6985 9.14286 12.2031 8.83048 12.4631 8.3581L15.4145 3.01714L14.084 2.28571H14.0764L13.2353 3.80952L11.125 7.61905H5.75748L5.65808 7.41333L3.94537 3.80952L3.21899 2.28571L2.50026 0.761905H0V2.28571H1.52921L4.28179 8.06857L3.24958 9.93524C3.12724 10.1486 3.05842 10.4 3.05842 10.6667C3.05842 11.5048 3.74657 12.1905 4.58764 12.1905H13.7629V10.6667H4.90877C4.80937 10.6667 4.71762 10.5829 4.71762 10.4762Z" fill="#8BC34A"/>
</svg>
