<svg width="32" height="32" viewBox="0 0 32 32" fill="none" xmlns="http://www.w3.org/2000/svg">
<path d="M8.89861 4C6.20447 4 4 6.20447 4 8.89861V24.1014C4 26.7955 6.20447 29 8.89861 29H24.1014C26.7955 29 29 26.7955 29 24.1014V8.89861C29 6.20447 26.7955 4 24.1014 4H8.89861V4ZM11.703 9.64069H16.6344C17.6585 9.64069 18.4365 9.67816 18.9645 9.75865C19.4926 9.83511 19.9886 9.99902 20.4495 10.2484C20.9483 10.5171 21.3229 10.879 21.5697 11.3272C21.8164 11.7781 21.9415 12.2964 21.9415 12.8856C21.9415 13.5666 21.7716 14.172 21.4291 14.7034C21.0899 15.2347 20.6192 15.6255 20.0207 15.8782V15.9508C20.8819 16.1337 21.5726 16.5017 22.0907 17.0617C22.6096 17.6223 22.8687 18.3769 22.8687 19.3246C22.8687 20.0183 22.7378 20.6302 22.475 21.1549C22.2124 21.6796 21.8607 22.112 21.4158 22.4578C20.8911 22.8702 20.3151 23.1612 19.684 23.3374C19.0568 23.513 18.2602 23.6007 17.2905 23.6007H11.703V9.64071L11.703 9.64069ZM15.1908 12.1997V15.1541H15.6321C16.2307 15.1541 16.6536 15.1479 16.8937 15.1353C17.1338 15.1227 17.3837 15.0584 17.6397 14.94C17.9177 14.809 18.1135 14.6271 18.2185 14.3963C18.3243 14.1629 18.3787 13.8933 18.3787 13.5894C18.3787 13.3626 18.321 13.1317 18.2052 12.895C18.0902 12.6582 17.9114 12.4852 17.6647 12.3794C17.4346 12.277 17.1625 12.223 16.8453 12.213C16.5287 12.203 16.0583 12.1998 15.4345 12.1998H15.1908L15.1908 12.1997ZM15.1908 17.5452V21.0401H15.3798C16.2923 21.0401 16.9225 21.0332 17.271 21.0205C17.6195 21.0079 17.9785 20.9252 18.3396 20.7682C18.6602 20.6306 18.8903 20.4288 19.038 20.1628C19.185 19.8974 19.2583 19.5964 19.2583 19.2606C19.2583 18.8283 19.1728 18.4924 18.9966 18.249C18.821 18.0029 18.5583 17.8202 18.2092 17.6951C17.9977 17.612 17.703 17.567 17.3319 17.5577C16.9608 17.5484 16.4621 17.5452 15.8376 17.5452H15.1908H15.1908Z" fill="white"/>
</svg>
