<svg width="32" height="32" viewBox="0 0 32 32" fill="none" xmlns="http://www.w3.org/2000/svg">
<path fill-rule="evenodd" clip-rule="evenodd" d="M1.27902 5H30.721C31.4255 5 32 5.60122 32 6.33856V24.6614C32 25.3988 31.4255 26 30.721 26H1.27902C0.577187 26 0 25.3988 0 24.6614V6.33856C0 5.60122 0.577187 5 1.27902 5ZM26.6454 11.4489H21.5022C21.7786 13.244 23.437 14.9201 25.2634 14.9201H29.3552C29.4094 14.7471 29.4094 14.5174 29.4094 14.3415C29.4094 12.7222 28.1927 11.4489 26.6454 11.4489ZM21.9439 15.2093V19.5511H24.4342V17.237H26.6454C27.8621 17.237 28.9108 16.3692 29.2441 15.2093H21.9439ZM13.0965 11.4489V19.5511H15.3104C15.3104 19.5511 15.8632 19.5511 16.1396 18.9726C17.6327 15.8474 18.0744 14.9201 18.0744 14.9201H18.3508V19.5511H20.8383V11.4489H18.6271C18.6271 11.4489 18.0744 11.5084 17.798 12.0274C16.5271 14.6903 15.8632 16.0799 15.8632 16.0799H15.5868V11.4489H13.0965ZM2.59057 19.5511V11.4489H5.08087C5.08087 11.4489 5.79897 11.4489 6.18647 12.6059C7.18096 15.6744 7.29207 16.0799 7.29207 16.0799C7.29207 16.0799 7.51156 15.3256 8.39766 12.6059C8.78516 11.4489 9.50326 11.4489 9.50326 11.4489H11.9909V19.5511H9.50326V15.2093H9.22686L7.84486 19.5511H6.73927L5.35727 15.2093H5.08087V19.5511H2.59057Z" fill="white"/>
</svg>
