<svg width="32" height="32" viewBox="0 0 32 32" fill="none" xmlns="http://www.w3.org/2000/svg">
<path d="M16.0086 11.8401C13.7133 11.8401 11.8402 13.7132 11.8402 16.0085C11.8402 18.3038 13.7133 20.177 16.0086 20.177C18.3039 20.177 20.177 18.3038 20.177 16.0085C20.177 13.7132 18.3039 11.8401 16.0086 11.8401ZM28.5108 16.0085C28.5108 14.2824 28.5264 12.5718 28.4295 10.8488C28.3325 8.84746 27.876 7.07126 26.4125 5.60777C24.9459 4.14115 23.1728 3.68772 21.1715 3.59078C19.4453 3.49384 17.7348 3.50948 16.0117 3.50948C14.2856 3.50948 12.575 3.49384 10.852 3.59078C8.85063 3.68772 7.07443 4.14428 5.61094 5.60777C4.14433 7.07438 3.69089 8.84746 3.59395 10.8488C3.49701 12.575 3.51265 14.2855 3.51265 16.0085C3.51265 17.7316 3.49701 19.4452 3.59395 21.1683C3.69089 23.1696 4.14745 24.9458 5.61094 26.4093C7.07756 27.8759 8.85063 28.3294 10.852 28.4263C12.5781 28.5233 14.2887 28.5076 16.0117 28.5076C17.7379 28.5076 19.4484 28.5233 21.1715 28.4263C23.1728 28.3294 24.949 27.8728 26.4125 26.4093C27.8791 24.9427 28.3325 23.1696 28.4295 21.1683C28.5296 19.4452 28.5108 17.7347 28.5108 16.0085V16.0085ZM16.0086 22.4223C12.4593 22.4223 9.59488 19.5578 9.59488 16.0085C9.59488 12.4593 12.4593 9.59484 16.0086 9.59484C19.5579 9.59484 22.4223 12.4593 22.4223 16.0085C22.4223 19.5578 19.5579 22.4223 16.0086 22.4223ZM22.685 10.83C21.8563 10.83 21.1871 10.1608 21.1871 9.33216C21.1871 8.50347 21.8563 7.83427 22.685 7.83427C23.5137 7.83427 24.1829 8.50347 24.1829 9.33216C24.1831 9.52893 24.1445 9.72382 24.0693 9.90567C23.9942 10.0875 23.8838 10.2527 23.7447 10.3919C23.6056 10.531 23.4403 10.6413 23.2585 10.7165C23.0766 10.7917 22.8818 10.8303 22.685 10.83V10.83Z" fill="white"/>
</svg>
