<svg width="15" height="15" viewBox="0 0 15 15" fill="none" xmlns="http://www.w3.org/2000/svg">
<path d="M13.0497 0.696777L14.6968 2.34384L2.34384 14.6968L0.696777 13.0497L13.0497 0.696777ZM3.57913 1.10854C4.94619 1.10854 6.04972 2.21207 6.04972 3.57913C6.04972 4.94619 4.94619 6.04972 3.57913 6.04972C2.21207 6.04972 1.10854 4.94619 1.10854 3.57913C1.10854 2.21207 2.21207 1.10854 3.57913 1.10854ZM11.8144 9.34384C13.1815 9.34384 14.285 10.4474 14.285 11.8144C14.285 13.1815 13.1815 14.285 11.8144 14.285C10.4474 14.285 9.34384 13.1815 9.34384 11.8144C9.34384 10.4474 10.4474 9.34384 11.8144 9.34384ZM3.57913 2.7556C3.12619 2.7556 2.7556 3.12619 2.7556 3.57913C2.7556 4.03207 3.12619 4.40266 3.57913 4.40266C4.03207 4.40266 4.40266 4.03207 4.40266 3.57913C4.40266 3.12619 4.03207 2.7556 3.57913 2.7556ZM11.8144 10.9909C11.3615 10.9909 10.9909 11.3615 10.9909 11.8144C10.9909 12.2674 11.3615 12.638 11.8144 12.638C12.2674 12.638 12.638 12.2674 12.638 11.8144C12.638 11.3615 12.2674 10.9909 11.8144 10.9909Z" fill="#FF6E40"/>
</svg>
