<svg width="32" height="32" viewBox="0 0 32 32" fill="none" xmlns="http://www.w3.org/2000/svg">
<path fill-rule="evenodd" clip-rule="evenodd" d="M15.9998 2.66675C8.63984 2.66675 2.6665 8.64008 2.6665 16.0001C2.6665 23.3601 8.63984 29.3334 15.9998 29.3334C23.3598 29.3334 29.3332 23.3601 29.3332 16.0001C29.3332 8.64008 23.3598 2.66675 15.9998 2.66675ZM15.9998 26.6667C10.1198 26.6667 5.33317 21.8801 5.33317 16.0001C5.33317 10.1201 10.1198 5.33341 15.9998 5.33341C21.8798 5.33341 26.6665 10.1201 26.6665 16.0001C26.6665 21.8801 21.8798 26.6667 15.9998 26.6667Z" fill="white"/>
<path fill-rule="evenodd" clip-rule="evenodd" d="M17.9866 15.1732C18.5599 13.5466 18.2133 11.6532 16.9066 10.3466C16.2013 9.64473 15.2885 9.18912 14.3036 9.0474C13.3188 8.90567 12.3145 9.0854 11.4399 9.55988L14.5733 12.6932L12.6933 14.5732L9.55995 11.4399C8.61328 13.1999 8.86662 15.4266 10.3466 16.9066C11.6533 18.2132 13.5466 18.5599 15.1733 17.9866L19.72 22.5332C19.9866 22.7999 20.4 22.7999 20.6666 22.5332L22.5333 20.6666C22.8 20.3999 22.8 19.9865 22.5333 19.7199L17.9866 15.1732V15.1732Z" fill="white"/>
</svg>
