<svg width="16" height="17" viewBox="0 0 16 17" fill="none" xmlns="http://www.w3.org/2000/svg">
<path d="M7.17659 15.2543L7.17587 15.2536C5.10581 13.3765 3.42817 11.8542 2.26203 10.4284C1.10162 9.00974 0.5 7.74776 0.5 6.4C0.5 4.21214 2.21214 2.5 4.4 2.5C5.64061 2.5 6.83912 3.07997 7.61932 3.99617L8 4.4432L8.38068 3.99617C9.16088 3.07997 10.3594 2.5 11.6 2.5C13.7879 2.5 15.5 4.21214 15.5 6.4C15.5 7.74777 14.8984 9.00977 13.7379 10.4296C12.5725 11.8553 10.8964 13.3784 8.8284 15.2577L8.82481 15.261L8.82374 15.262L8.00128 16.005L7.17659 15.2543Z" fill="#FF6E40" stroke="#FF6E40"/>
</svg>
