<svg width="967" height="204" viewBox="0 0 967 204" fill="none" xmlns="http://www.w3.org/2000/svg">
<path fill-rule="evenodd" clip-rule="evenodd" d="M865.778 101.588C865.778 125.639 846.029 145.136 821.667 145.136C797.304 145.136 777.555 125.639 777.555 101.588C777.555 77.5363 797.304 58.0391 821.667 58.0391C846.029 58.0391 865.778 77.5363 865.778 101.588ZM832.066 91.3209C829.407 88.6955 825.73 87.0714 821.667 87.0714C817.603 87.0714 813.926 88.6955 811.267 91.3209C808.608 93.9463 806.963 97.5762 806.963 101.588C806.963 105.599 808.608 109.229 811.267 111.854C813.926 114.48 817.603 116.104 821.667 116.104C825.73 116.104 829.407 114.48 832.066 111.854C834.725 109.229 836.37 105.599 836.37 101.588C836.37 97.5762 834.725 93.9463 832.066 91.3209Z" fill="#FF6E40"/>
<path d="M904.274 145.136V105.982L871.899 58.0391H907.242L918.978 75.4187L930.714 58.0391H966.057L933.682 105.982V145.136H904.274Z" fill="#FF6E40"/>
<path fill-rule="evenodd" clip-rule="evenodd" d="M29.4076 174.194H264.668V29.0324H29.4076V174.194ZM264.668 203.227H0V0H294.076V203.227H264.668Z" fill="#FF6E40"/>
<path fill-rule="evenodd" clip-rule="evenodd" d="M117.601 145.136H88.1937V87.0714H58.7861V58.0391H147.009V87.0714H117.601V145.136Z" fill="#FF6E40"/>
<path fill-rule="evenodd" clip-rule="evenodd" d="M235.278 145.136H147.056V116.104H176.463V58.0391H205.871V116.104H235.278V145.136Z" fill="#FF6E40"/>
<path fill-rule="evenodd" clip-rule="evenodd" d="M546.667 101.588C546.667 125.639 526.918 145.136 502.556 145.136C478.194 145.136 458.444 125.639 458.444 101.588C458.444 77.5363 478.194 58.0391 502.556 58.0391C526.918 58.0391 546.667 77.5363 546.667 101.588ZM512.955 91.3209C510.296 88.6955 506.619 87.0714 502.556 87.0714C498.492 87.0714 494.816 88.6955 492.156 91.3209C489.497 93.9463 487.852 97.5762 487.852 101.588C487.852 105.599 489.497 109.229 492.156 111.854C494.816 114.48 498.492 116.104 502.556 116.104C506.619 116.104 510.296 114.48 512.955 111.854C515.614 109.229 517.259 105.599 517.259 101.588C517.259 97.5762 515.614 93.9463 512.955 91.3209Z" fill="#FF6E40"/>
<path d="M616.654 58.0391C625.789 58.0391 634.06 61.6957 640.047 67.6064C646.034 73.5171 649.738 81.6827 649.738 90.7005C649.738 99.7185 646.035 107.884 640.047 113.795C634.06 119.706 625.789 123.362 616.654 123.362L601.951 123.298V145.136H572.543V58.0391H616.654ZM601.951 87.0224V94.3786L616.654 94.3295C617.67 94.3295 618.59 93.9236 619.255 93.2675C619.919 92.6117 620.33 91.7035 620.33 90.7005C620.33 89.6971 619.919 88.7893 619.255 88.1334C618.59 87.4776 617.671 87.0714 616.654 87.0714L601.951 87.0224Z" fill="#FF6E40"/>
<path fill-rule="evenodd" clip-rule="evenodd" d="M441.414 58.0391H353.191V87.0714H382.599V145.136H412.007V87.0714H441.414V58.0391Z" fill="#FF6E40"/>
<path fill-rule="evenodd" clip-rule="evenodd" d="M758.704 58.0391H670.481V87.0714H699.889V145.136H729.297V87.0714H758.704V58.0391Z" fill="#FF6E40"/>
</svg>
