<?xml version="1.0" encoding="UTF-8"?>
<!DOCTYPE svg PUBLIC "-//W3C//DTD SVG 1.1//EN" "http://www.w3.org/Graphics/SVG/1.1/DTD/svg11.dtd">
<!-- Creator: CorelDRAW 2019 (64-Bit) -->
<svg xmlns="http://www.w3.org/2000/svg" xml:space="preserve" width="100%" height="100%" version="1.1" style="shape-rendering:geometricPrecision; text-rendering:geometricPrecision; image-rendering:optimizeQuality; fill-rule:evenodd; clip-rule:evenodd"
viewBox="0 0 27232.66 5728.86"
 xmlns:xlink="http://www.w3.org/1999/xlink"
 xmlns:xodm="http://www.corel.com/coreldraw/odm/2003">
 <defs>
  <style type="text/css">
   <![CDATA[
    .fil0 {fill:#FF6E40}
   ]]>
  </style>
 </defs>
 <g id="Layer_x0020_1">
  <metadata id="CorelCorpID_0Corel-Layer"/>
  <path class="fil0" d="M3315.1 4091.31l-828.97 0 0 -1636.81 -828.98 0 0 -818.4 2486.96 0 0 818.4 -829.01 0 0 1636.81zm3317.27 0l-2486.94 0 0 -818.4 828.97 0 0 -1636.81 829 0 0 1636.81 828.97 0 0 818.4zm-5803.39 819.12l6631.88 0 0 -4092.02 -6631.88 0 0 4092.02zm11614.26 -3274.33l-2486.97 0 0 818.4 829.01 0 0 1636.81 828.99 0 0 -1636.81 828.97 0 0 -818.4zm2967.02 1227.62c0,677.97 -556.71,1227.59 -1243.45,1227.59 -686.76,0 -1243.5,-549.62 -1243.5,-1227.59 0,-678.01 556.74,-1227.62 1243.5,-1227.62 686.74,0 1243.45,549.61 1243.45,1227.62zm1972.91 -1227.62c257.51,0 490.67,103.08 659.44,269.69 168.77,166.62 273.18,396.81 273.18,651.01 0,254.22 -104.38,484.39 -273.18,651.02 -168.77,166.62 -401.93,269.68 -659.44,269.68l-414.47 -1.8 0 615.61 -829 0 0 -2455.21 1243.47 0zm4004.32 0l-2486.95 0 0 818.4 828.99 0 0 1636.81 828.99 0 0 -1636.81 828.97 0 0 -818.4zm3018.37 1227.62c0,677.97 -556.72,1227.59 -1243.47,1227.59 -686.79,0 -1243.5,-549.62 -1243.5,-1227.59 0,-678.01 556.71,-1227.62 1243.5,-1227.62 686.75,0 1243.47,549.61 1243.47,1227.62zm1085.18 1227.59l0 -1103.74 -912.63 -1351.47 996.3 0 330.83 489.91 330.83 -489.91 996.29 0 -912.62 1351.47 0 1103.74 -829 0zm-2035.5 -1517.02c-74.97,-74 -178.61,-119.79 -293.15,-119.79 -114.56,0 -218.22,45.79 -293.17,119.79 -74.96,74.01 -121.33,176.33 -121.33,289.43 0,113.05 46.37,215.38 121.33,289.38 74.95,74.02 178.61,119.81 293.17,119.81 114.54,0 218.18,-45.79 293.15,-119.81 74.95,-74 121.32,-176.33 121.32,-289.38 0,-113.1 -46.37,-215.42 -121.32,-289.43zm-6486.84 -119.79l0 204.6 414.47 0c28.64,0 54.58,-11.44 73.32,-29.94 18.72,-18.48 30.3,-44.08 30.3,-72.36 0,-28.28 -11.58,-53.87 -30.3,-72.37 -18.74,-18.48 -44.65,-29.93 -73.32,-29.93l-414.47 0zm-2508.76 119.79c-74.94,-74 -178.6,-119.79 -293.13,-119.79 -114.57,0 -218.19,45.79 -293.18,119.79 -74.95,74.01 -121.32,176.33 -121.32,289.43 0,113.05 46.37,215.38 121.32,289.38 74.99,74.02 178.61,119.81 293.18,119.81 114.53,0 218.19,-45.79 293.13,-119.81 74.95,-74 121.33,-176.33 121.33,-289.38 0,-113.1 -46.38,-215.42 -121.33,-289.43zm-14459.94 3154.57l0 -5728.86 8289.86 0 0 5728.86 -8289.86 0z"/>
 </g>
</svg>
